<?xml version="1.0" encoding="UTF-8" standalone="no"?>
<!DOCTYPE svg PUBLIC "-//W3C//DTD SVG 1.1//EN" "http://www.w3.org/Graphics/SVG/1.1/DTD/svg11.dtd">
<svg width="100%" height="100%" viewBox="0 0 2000 2000" version="1.1" xmlns="http://www.w3.org/2000/svg" xmlns:xlink="http://www.w3.org/1999/xlink" xml:space="preserve" xmlns:serif="http://www.serif.com/" style="fill-rule:evenodd;clip-rule:evenodd;stroke-linejoin:round;stroke-miterlimit:2;">
    <rect id="ArtBoard1" x="0" y="0" width="2000" height="2000" style="fill:none;"/>
    <g id="ArtBoard11" serif:id="ArtBoard1">
        <g transform="matrix(1.515141,0,0,1.222629,126.803769,-208.910753)">
            <path d="M545.627,308.336C552.996,296.609 564.319,289.75 576.313,289.75C588.308,289.75 599.631,296.609 607,308.336C694.79,450.813 940.695,881.317 940.695,1233.319C940.695,1500.569 777.421,1717.542 576.313,1717.542C375.206,1717.542 211.932,1500.569 211.932,1233.319C211.932,881.317 457.837,450.813 545.627,308.336ZM551,313.474C463.657,455.231 218.719,883.208 218.719,1233.319C218.719,1495.771 378.816,1709.132 576.313,1709.132C773.81,1709.132 933.908,1495.771 933.908,1233.319C933.908,883.208 688.97,455.231 601.609,313.446C595.525,303.799 586.195,298.16 576.313,298.16C566.422,298.16 557.084,303.81 551,313.474Z"/>
        </g>
    </g>
</svg>
